<svg height="1052.362205" width="744.094488" xmlns="http://www.w3.org/2000/svg" xmlns:xlink="http://www.w3.org/1999/xlink"><filter id="a" height="1.574032" width="1.808496" x="-.404248" y="-.287016"><feGaussianBlur stdDeviation="4.5301564"/></filter><filter id="b" height="2.193912" width="2.386479" x="-.693239" y="-.596956"><feGaussianBlur stdDeviation="6.783937"/></filter><path d="m480.42014 949.3086c-2.83395 88.6991-62.81271 87.1373-48.28899 94.2307 61.10035 29.8416 135.73738-48.1164 140.92397-82.6201 13.46384-89.56855-73.98718-57.12083-92.63498-11.6106z" fill="#174981"/><path d="m162.95578 641.54876c67.53272-53.73283 41.21204-193.49854 136.24026-250.88664l8.0224 160.7856c-61.41192 10.29172-37.79942 63.72854-73.79371 93.99125z" fill="#8ebfda"/><path d="m211.95911 944.1986c-59.96859 67.083-105.4846 29.211-98.83667 43.5915 27.9675 60.4979 136.64729 45.6357 163.14351 22.0369 68.78181-61.2603-20.19841-89.53854-64.30684-65.6284z" fill="#174981"/><path d="m187.41385 863.36125c-69.97891-12.66875-78.37974 28.30661-55.66406 44.24499-36.209361 32.12796 33.30712 56.96356 56.82373 50.41876 17.34671 35.5292 50.77025 43.7831 95.09273 27.7817 25.56373 23.9169 59.11003 23.9106 91.61371 0 16.16872 17.0073 73.68324 32.3727 105.52974-10.2895 32.39025 17.8436 74.0539-10.513 67.26072-40.12923 41.89598 18.31673 66.48695-34.0816 49.86569-47.33183 53.5579-47.521-46.10844-59.05014-82.33637-45.27394" fill="#4c8eb3"/><path d="m297.87063 380.16835c-61.35673 103.67194-72.64481 95.56373-38.3737 177.61744-60.60627 90.11428-67.75855 280.22109-110.03968 325.53656 80.19663 58.76975 293.23251 121.41945 428.83051-15.06483-28.51919-66.86571-55.82056-207.16025-134.36333-307.48474 30.44113-68.04518 30.84251-130.96737-12.19431-154.8872z" fill="#b1e3ff"/><path d="m345.67834 393.43231c-66.5701 36.34269-84.69923 126.95456-44.98478 170.63198-43.84177 53.76254-56.50484 286.19128-69.53002 360.60496 3.91644 6.8906 13.99462 9.40694 22.35288 7.2981-1.05004-84.1369 23.5989-319.48182 64.91763-365.44791-52.86542-64.3646-9.77647-122.24223 27.24429-173.08713z" fill="#fff"/><path d="m515.96232 674.41231c34.20235 13.76153 31.4383 45.23595 26.73254 64.75677 12.46646-2.01113 22.70814-8.39019 24.5612-12.64192-2.81755-14.30115 1.13926-18.80861-12.80443-39.77818 14.58448 19.50986 15.14373 45.09445 27.64093 36.11926 9.50474-6.82607 25.44257-18.26154 22.89929-32.43723-16.00873-17.61928-16.36107-23.41303-26.51198-31.93269 11.21092 8.54915 19.05295 22.24642 25.18326 21.984 7.55461-11.28002 10.54887-14.48455 8.29667-27.03854-5.80167-32.33901-176.74795-38.88191-95.99748 20.96853z" fill="#e29470"/><path d="m645.7143 600.93359a11.785714 16.428572 0 1 1 -23.57143 0 11.785714 16.428572 0 1 1 23.57143 0z" fill="#ff442a" transform="matrix(1.6618911 .60137061 -.62077424 1.6099451 -184.63742 -706.68131)"/><path d="m358.31912 447.42679c-20.08757 19.1813-23.02646 55.61753-2.85214 73.81481-3.81957 25.22886-.47952 43.04007 29.2678 52.85301-1.17143 21.47172 11.25442 35.90545 22.45832 40.88466 1.11321 16.01255 20.61206 22.6817 37.59979 24.71092 19.78022 18.88084 51.02498 22.24776 59.69071 6.02187 6.63061-12.41534-.005-26.90795-20.9671-34.5505 1.50763-17.55177-32.91799-21.19087-36.81681-20.9581 3.56992-17.95917-15.45713-38.75498-27.46359-36.91595 7.259-12.16635 1.65311-39.66618-24.39182-41.15567 14.7072-15.04558 24.1851-49.36668-4.81478-62.01446-22.4116-9.77442-21.17877-17.77677-31.71038-2.69059z" fill="#e29470"/><path d="m442.85075 674.26079c1.89133-14.48547 45.8873-67.3546 59.15218-108.03825 11.77297-36.10801.39514-86.14666-15.02286-113.91543-15.86258-28.56945-30.32104-36.74194-54.07803-54.43476l-36.97935 8.34413c1.79695 61.54161 25.2906 97.56048 46.90695 125.87561-18.33479 42.92864-42.28675 96.09624-58.47823 124.81194z" fill="#8ebfda"/><path d="m216.61938 661.86833c12.06157 2.49238 18.33663-9.64768 11.11617-13.75923 10.67588-10.22071 5.44774-16.47767-2.21682-19.78669-3.25218-7.66331-10.45438-12.46224-17.89928-8.81464-4.56237-5.10635-13.50463-5.70876-17.00817.16791-2.90088-3.63873-16.16251-4.2549-16.61013 5.28938-5.67985-3.75957-16.47751 6.70071-10.58696 11.07232-9.17656-1.9029-11.19054 12.14218-5.44011 12.07621-8.7679 10.53884 10.53427 17.60321 16.61388 14.47014" fill="#4c8eb3"/><path d="m189.9079 634.5365c-9.32698 1.63467-15.8718 16.20867-12.77332 29.74031 4.56248 19.92533-3.35424 53.98434 5.33068 70.90165 13.05773 25.43505 28.9269-32.57815 28.92587-39.86364-.004-23.18248 16.96546-1.67654 19.45052-8.35431 4.63002-12.44146-13.33537-20.9496-18.23897-33.97591-5.92129-15.72976-10.99176-20.49903-22.69478-18.4481z" fill="#ff442a"/><path d="m298.32956 379.5848c-26.95033-2.52177-38.62517 17.40271-22.25861 26.7483-16.25781 17.77631 11.18653 26.54924 19.65061 22.41114 8.45754 15.57363 21.45054 17.79487 37.20189 8.30353 10.90339 9.82371 23.48923 8.22676 34.37244-4.3533 6.99939 7.08107 32.58911 15.55249 42.19698-5.65083 13.13139 6.69629 27.20738-6.31469 23.0338-19.66072 16.7238 6.46295 19.90739-25.05827 12.94433-30.38387 17.48714-24.47752-20.53905-25.06262-33.37555-16.98294" fill="#4c8eb3"/><path d="m353.55341 454.47815a18.561554 6.6922607 0 1 1 -37.12311 0 18.561554 6.6922607 0 1 1 37.12311 0z" fill="#f7b8a3" transform="matrix(2.0395507 0 0 3.1610896 -329.38279 -1042.9878)"/><path d="m243.99902 236.51568c-61.1969-74.61756 2.79664-114.49563 48.03915-109.3172-16.23177-56.57669 34.77314-59.69353 60.26306-55.7739 6.818-26.02408 18.78082-66.4782982 51.91189-65.4810082 26.68887.803392 41.65006 35.5120182 41.71002 73.4332982 68.33999-4.34402 62.9019 59.55057 45.82501 81.1515 94.2661 22.59803 47.61285 142.78977-31.60414 134.7503" fill="#174981"/><path d="m234.48707 222.39372c-57.38321-70.13568 2.62236-107.61847 45.04543-102.75108-15.22024-53.17841 32.60615-56.10805 56.50755-52.42384 6.39313-24.46094 17.61045-62.4852802 48.67685-61.5478672 25.02566.755113 39.05448 33.3789842 39.11072 69.0225072 64.08114-4.0831 58.98195 55.97368 42.96925 76.27713 88.39159 21.24067 44.64571 134.2131-29.63462 126.65653" fill="#8bbaee"/><path d="m324.03897 397.75169c-24.12361-1.58953-87.53045-47.06274-66.46516-106.62554-13.57256-28.02392-21.4777-48.40073-9.22799-68.36944 12.40309-20.21867-8.61507-30.31767 64.57227-61.47576 94.13937 53.60924 183.18567 96.76796 95.56993 204.28949-7.57612 9.29739-36.08664 30.85106-84.44905 32.18125z" fill="#ffccbc"/><g fill="#fff"><path d="m537.14288 295.21931-11.21437-5.96943-4.79578 11.76422-3.70873-12.15079-11.70969 4.92743 5.96944-11.21437-11.76422-4.79578 12.15079-3.70873-4.92744-11.70969 11.21438 5.96944 4.79578-11.76422 3.70873 12.15078 11.70968-4.92743-5.96943 11.21438 11.76422 4.79577-12.15079 3.70874z" transform="matrix(.78818434 0 0 .75953007 -156.21231 -53.1853)"/><path d="m537.14288 295.21931-11.21437-5.96943-4.79578 11.76422-3.70873-12.15079-11.70969 4.92743 5.96944-11.21437-11.76422-4.79578 12.15079-3.70873-4.92744-11.70969 11.21438 5.96944 4.79578-11.76422 3.70873 12.15078 11.70968-4.92743-5.96943 11.21438 11.76422 4.79577-12.15079 3.70874z" transform="matrix(.78818434 0 0 .75953007 60.528728 -16.457031)"/><path d="m537.14288 295.21931-11.21437-5.96943-4.79578 11.76422-3.70873-12.15079-11.70969 4.92743 5.96944-11.21437-11.76422-4.79578 12.15079-3.70873-4.92744-11.70969 11.21438 5.96944 4.79578-11.76422 3.70873 12.15078 11.70968-4.92743-5.96943 11.21438 11.76422 4.79577-12.15079 3.70874z" transform="matrix(.78818434 0 0 .75953007 -41.326514 -85.469806)"/></g><path d="m250.33286 277.19566c15.13654-5.72507-12.39828-38.85339 57.79388-111.97479-25.45847 62.1928 167.1276 44.86091 91.84297 210.49527 7.04205-3.41097 54.89865-65.53415 56.44982-72.04581 4.53273-19.02783.17741-42.97612-3.58411-61.19553-4.02676-19.5045-13.49373-35.44935-24.6408-51.6473-47.20406-68.59292-157.18219-51.23665-180.99785 29.51275-3.20668 10.87252-4.48016 5.07398-4.48016 18.22846 0 14.33075-4.84706 31.72767 7.61625 38.62695z" fill="#f2ac94" fill-opacity=".626135"/><path d="m253.24292 275.12591c-11.4202-3.12643-39.02506-24.44041-28.67044-45.87177 53.52836-151.69555 302.05164-79.8399 271.54045 68.59201 19.82291 20.16731-.63314 75.36795-21.76528 73.52485.65866 36.20055-27.75075 56.7377-46.54259 48.43061 10.09792 16.96259-4.26839 51.71895-29.14381 48.66146 11.52706 34.91119-22.9427 36.77546-18.09055 43.26933 2.02564 2.71104-35.9711.75459-33.74005-17.79213.79389-6.59915-5.51322-21.04934 11.82139-48.33261-7.25845-15.95019 6.54436-45.80314 28.02367-50.76328-7.74198-16.85781 18.39807-54.00126 35.22903-46.22966-5.58036-10.97638-.41929-42.38225 18.20582-46.21833-76.02599-135.06244-104.09073-70.63322-133.00362-132.96362-64.3447 34.55817-54.93015 90.82137-53.86402 105.69314z" fill="#e29470"/><path d="m369.4802 677.2051c-15.13358-5.24059-13.77482-21.31104-2.91552-20.77533-4.85681-16.97948 5.25962-19.84887 16.06163-18.23206 8.88403-5.53003 20.19526-5.68864 25.97309 2.69625 8.58512-2.15256 18.94921 2.96953 18.80995 11.04683 5.72792-1.75795 20.9077 6.11359 14.84814 15.87832 8.90317-.10022 13.73089 17.19513 4.17276 17.7684 11.51829 3.98045 4.1093 19.21696-2.244 15.47292 2.51522 16.07494-23.81637 10.74304-28.42858 3.74244" fill="#4c8eb3"/><path d="m416.82106 677.84133c6.69565 11.01527-3.61126 23.33217-12.74159 34.86508-17.25303 21.79304-25.74348 54.1041-61.06017 45.36985-18.60166-4.6004 1.15078-53.94755 6.95619-59.18626 18.47292-16.66963-13.21223-19.10373-10.02285-26.52818 5.94214-13.83256 28.12618-.99892 42.70945-5.19451 17.60984-5.06634 25.75759-3.1473 34.15897 10.67402z" fill="#ff442a"/><path d="m537.14288 295.21931-11.21437-5.96943-4.79578 11.76422-3.70873-12.15079-11.70969 4.92743 5.96944-11.21437-11.76422-4.79578 12.15079-3.70873-4.92744-11.70969 11.21438 5.96944 4.79578-11.76422 3.70873 12.15078 11.70968-4.92743-5.96943 11.21438 11.76422 4.79577-12.15079 3.70874z" fill="#fff" transform="matrix(.78818434 0 0 .75953007 -94.541646 -112.42977)"/><path d="m537.14288 295.21931-11.21437-5.96943-4.79578 11.76422-3.70873-12.15079-11.70969 4.92743 5.96944-11.21437-11.76422-4.79578 12.15079-3.70873-4.92744-11.70969 11.21438 5.96944 4.79578-11.76422 3.70873 12.15078 11.70968-4.92743-5.96943 11.21438 11.76422 4.79577-12.15079 3.70874z" fill="#fff" transform="matrix(.78818434 0 0 .75953007 22.476467 -98.1132)"/><path d="m537.14288 295.21931-11.21437-5.96943-4.79578 11.76422-3.70873-12.15079-11.70969 4.92743 5.96944-11.21437-11.76422-4.79578 12.15079-3.70873-4.92744-11.70969 11.21438 5.96944 4.79578-11.76422 3.70873 12.15078 11.70968-4.92743-5.96943 11.21438 11.76422 4.79577-12.15079 3.70874z" fill="#fff" transform="matrix(.78818434 0 0 .75953007 -32.312493 -156.2741)"/><path d="m546.9976 421.52191a11.743023 13.637059 0 1 1 -23.48605 0 11.743023 13.637059 0 1 1 23.48605 0z" fill="#e48070" filter="url(#b)" opacity=".387622" transform="matrix(.8835792 0 0 1.4282478 -166.53358 -288.65558)"/><path d="m536.01217 389.82837a13.447656 18.940359 0 1 1 -26.89531 0 13.447656 18.940359 0 1 1 26.89531 0z" fill="#e48070" filter="url(#a)" opacity=".289902" transform="matrix(1.774047 0 0 1.7185954 -626.87956 -396.88468)"/><path d="m319.1031 273.94059c.0311 26.75571-21.62983 41.01923-19.48863 51.86429 1.38776 7.0289 5.60477 6.76764 14.33646 9.11425 13.3995 3.60106 17.96631 1.57137 21.5047 8.24619 9.68439 18.2686-57.28634 34.0258-68.54622 1.30204-7.05022-20.48956-16.99634-137.80189 38.97725-96.35042 6.98726 5.17446 13.20316 14.3726 13.21644 25.82365z" fill="#ffccbc"/><path d="m525.7844 402.07648a7.5761442 11.364216 0 1 1 -15.15229 0 7.5761442 11.364216 0 1 1 15.15229 0z" fill="#fff" fill-opacity=".626135" transform="matrix(1.7702109 .11295748 -.11660213 1.7148792 -583.41672 -460.93186)"/><path d="m523.76407 405.10693a4.5456862 7.8286824 0 1 1 -9.09137 0 4.5456862 7.8286824 0 1 1 9.09137 0z" fill="#08274a" transform="matrix(1.9914873 .12707716 -.11660213 1.7148792 -697.47334 -470.10794)"/><path d="m523.76407 407.75858a1.5152289 1.5152289 0 1 1 -3.03046 0 1.5152289 1.5152289 0 1 1 3.03046 0z" fill="#fff" opacity=".19544" transform="matrix(4.0198539 .25650761 -.38138614 5.6090838 -1654.6197 -2130.3851)"/><path d="m520.73365 403.46545a2.0834396 3.1567266 0 1 1 -4.16688 0 2.0834396 3.1567266 0 1 1 4.16688 0z" fill="#0d1e31" transform="matrix(1.7711682 .09786541 -.1010231 1.7158067 -588.39811 -451.76913)"/><path d="m520.98618 398.98288a2.6516504 3.7249374 0 1 1 -5.3033 0 2.6516504 3.7249374 0 1 1 5.3033 0z" fill="#fff" opacity=".257329" transform="matrix(1.7702109 .11295748 -.11660213 1.7148792 -588.87112 -459.26192)"/><path d="m525.7844 402.07648a7.5761442 11.364216 0 1 1 -15.15229 0 7.5761442 11.364216 0 1 1 15.15229 0z" fill="#fff" fill-opacity=".626135" transform="matrix(1.8158396 .39775152 -.40945524 1.7705576 -413.25149 -626.36181)"/><path d="m523.76407 405.10693a4.5456862 7.8286824 0 1 1 -9.09137 0 4.5456862 7.8286824 0 1 1 9.09137 0z" fill="#08274a" transform="matrix(2.0428197 .44747047 -.40945524 1.7705576 -529.92859 -653.9695)"/><path d="m523.76407 407.75858a1.5152289 1.5152289 0 1 1 -3.03046 0 1.5152289 1.5152289 0 1 1 3.03046 0z" fill="#fff" opacity=".19544" transform="matrix(4.1234691 .90322737 -1.3392599 5.7911988 -1242.6181 -2537.35)"/><path d="m520.73365 403.46545a2.0834396 3.1567266 0 1 1 -4.16688 0 2.0834396 3.1567266 0 1 1 4.16688 0z" fill="#0d1e31" transform="matrix(1.819372 .38215857 -.39346344 1.7739886 -419.95676 -617.59074)"/><path d="m520.98618 398.98288a2.6516504 3.7249374 0 1 1 -5.3033 0 2.6516504 3.7249374 0 1 1 5.3033 0z" fill="#fff" opacity=".257329" transform="matrix(1.8158396 .39775152 -.40945524 1.7705576 -413.1939 -625.43985)"/><path d="m356.76613 356.60528c-26.53286 9.38672-39.9969 6.00234-57.33974-1.53446 0 0 13.73161 12.10553 31.67942 12.27571 11.70697.11102 25.66032-10.74125 25.66032-10.74125z" fill="#c02e17"/><path d="m262.78038 252.13808c12.02612-14.93877 29.71668-19.07534 36.67785-7.3654-10.39977-2.92563-24.32162-2.84854-36.67785 7.3654z" fill="#e29470"/><path d="m392.94476 255.9834c-12.02611-14.93877-29.71667-19.07535-36.67785-7.3654 10.39977-2.92563 24.32162-2.84854 36.67785 7.3654z" fill="#e29470"/></svg>