<svg height="1052.362205" width="744.094488" xmlns="http://www.w3.org/2000/svg" xmlns:xlink="http://www.w3.org/1999/xlink"><filter id="a" height="1.440371" width="2.076688" x="-.538344" y="-.220185"><feGaussianBlur stdDeviation="27.025204"/></filter><filter id="b" height="1.622148" width="1.349521" x="-.174761" y="-.311074"><feGaussianBlur stdDeviation="11.242111"/></filter><filter id="c" height="1.365027" width="1.506945" x="-.253472" y="-.182514"><feGaussianBlur stdDeviation="10.645091"/></filter><filter id="d" height="1.92173" width="1.870111" x="-.435055" y="-.460865"><feGaussianBlur stdDeviation="8.2895552"/></filter><filter id="e" height="1.969666" width="1.915362" x="-.457681" y="-.484833"><feGaussianBlur stdDeviation="8.7206683"/></filter><filter id="f" height="1.574625" width="2.073473" x="-.536737" y="-.287312"><feGaussianBlur stdDeviation="28.095803"/></filter><filter id="g" height="1.689163" width="1.783064" x="-.391532" y="-.344582"><feGaussianBlur stdDeviation="27.843183"/></filter><filter id="h" height="1.525476" width="1.785947" x="-.392974" y="-.262738"><feGaussianBlur stdDeviation="26.262008"/></filter><g stroke="#000" stroke-linecap="round" stroke-linejoin="round"><g stroke-width="5"><path d="m521.69036 855.30359c-54.82991-12.76071-92.20494-25.18011-135.47887-25.18011-33.93859 0-94.50484 21.79772-73.0368 37.17005 34.13239 24.44087 203.01493 61.71157 221.45953 27.70151 3.11696-34.76784-7.05377-21.54612-12.94386-39.69145z" fill="#032041"/><path d="m534.6033 877.12741c1.1119 7.12995-3.91713 13.55786-16.4048 16.88524-12.48767 3.32729-33.02023 4.6935-61.74285-.57902-23.25616-2.70608-87.81369-19.57827-104.87832-29.03289 10.48976-30.53387 35.6894-22.59764 41.13457-23.26685 47.92044-5.88982 79.98328-6.76559 88.22529-5.72784 27.13298 3.41612 45.54827 16.43068 53.66611 41.72136z" fill="#33567d"/><path d="m440.26085 889.45643c-54.82989-12.7607-92.20494-25.1801-135.47886-25.1801-33.93859 0-94.50484 21.7977-73.03679 37.1701 34.13238 24.44076 203.01492 61.71159 221.45952 27.7015 3.11697-34.76791-7.05378-21.54614-12.94387-39.6915z" fill="#032041"/><path d="m489.06115 745.70622c-5.6588 8.6338-27.60532 34.9071-21.46413 66.3225 14.26619 6.66 29.74783-19.09893 39.54725 30.41157-27.65488-7.7313-54.31485-9.12097-87.15042 21.12993-15.91938 14.6663-51.30715.6643-66.12075-4.5883 11.38818-51.6735 10.16299-92.9671 6.56254-119.055 37.6265 0 97.24779-5.2739 128.62551 5.7793z" fill="#871000"/><path d="m454.26196 906.1184c1.35471 8.93928-4.77251 16.99845-19.98711 21.17017-15.21459 4.17171-40.23083 5.88455-75.22558-.72596-28.33459-3.39271-106.9895-24.54669-127.78052-36.40055 12.7804-38.28244 43.48286-28.33217 50.11709-29.17127 58.38479-7.38447 97.44917-8.48242 107.49098-7.18138 33.05799 4.28306 55.49462 20.60029 65.38514 52.30899z" fill="#33567d"/><path d="m405.53058 737.68897c-7.51928 11.22236-36.68131 45.37271-28.52104 86.20701 18.95658 8.65674 30.31221 19.9678 28.56851 34.42781-33.60587-5.04732-48.19136-6.75404-91.82251 32.5666-21.1533 19.06347-68.17576.86343-87.85972-5.96403 24.19094-69.43064 13.50434-120.83993 8.72015-154.74949 49.99722 0 129.22062-6.85508 170.91461 7.5121z" fill="#871000"/></g><path d="m570.62037 564.25859c14.85049 23.99801 87.11361 27.53431 102.81444-2.28229 5.15553-9.79055-1.77442-15.93534-1.37931-17.46154 10.51275-14.47698-.5126-16.93771-.2337-23.07747-2.48272-1.05304 12.00547-3.83377 3.52673-18.2299-4.79394-8.13962-30.7132 10.14514-43.11913 4.39355-13.11176-6.07893 8.06844-23.33626-6.86324-28.53258-9.20548-3.20351-20.91765 5.78885-26.81837 10.70283-31.34765 26.10563-34.79241 45.96942-27.92742 74.48741z" fill="#edd6a9" stroke-width="4.893923"/><path d="m438.21512 789.53185c15.7535 4.67135 120.82418 16.50604 120.82418-8.23339-18.80463-63.3784-25.86357-41.22837-20.75569-145.9424-16.01759-36.67578-30.70653-5.59879-19.88048 9.43751 8.92798-37.05899 20.86989 9.6023 73.44844-40.51871-49.08006-130.17358-62.77506-144.04096-155.81214-210.12804-15.42848-14.95632-49.90278-12.013-62.48304.18228-7.86406 7.6234-3.37004 16.62636-8.21933 26.02814 44.39162 114.33055 28.95441 281.49906 72.87806 369.17461z" fill="#a31400" stroke-width="5"/><path d="m183.26333 797.48741c81.39865 38.02143 211.7092 62.6978 282.07306-5.51273-33.01108-58.84689 40.23384-172.92182-37.19645-286.96265-2.1276-52.92491-28.51628-82.16714-57.34452-98.40866-29.64268 1.24604-93.5133-25.656-110.45449-10.60161-45.42145 66.67586-138.36983 332.39894-77.0776 401.48565z" fill="#ec3118" stroke-width="5"/></g><path d="m399.09692 692.67609c-.94957 27.97804-5.61214 54.43564 6.56599 78.7919 8.27311 16.54623 11.6713 26.15133 28.28427 30.30457 12.59503 3.14876 98.00275-2.29566 92.42896-15.15229-19.50867-44.99911-9.40791-152.37476-86.87312-113.64216-14.03554 7.01777-28.2822 12.77003-40.4061 19.69798z" fill="#ec3118" filter="url(#c)"/><path d="m171.69221 773.27126c-9.70924-11.57096-18.15418 37.08966-5.40166 43.33897 92.77389 45.46336 370.11098 38.54005 398.66844-16.26131 13.50037-25.90701-9.99934-53.55255-14.25548-43.85605-26.4709 60.30701-354.75449 45.68638-379.0113 16.77839z" fill="#fff" stroke="#000" stroke-linecap="round" stroke-linejoin="round" stroke-width="5"/><path d="m671.09643 544.7604c-10.3356 8.73301-26.65279 15.86379-40.4646 15.57504" fill="none" stroke="#000" stroke-linecap="round" stroke-width="5"/><path d="m673.17861 519.89451c-10.04107 7.20938-25.49446 13.88823-39.7772 14.34873" fill="none" stroke="#000" stroke-linecap="round" stroke-width="5"/><path d="m212.02881 642.67659c-14.56762 19.27949-32.25786 45.07182-6.89765 46.86672 86.64236 32.27267 274.02299 34.00636 331.01831-9.29241 2.61729-8.21417 5.40805-31.30988-3.31858-49.14906-38.70735 30.28683-254.78069 55.71549-320.80208 11.57475z" fill="#ffbc4a" stroke="#000" stroke-linecap="round" stroke-linejoin="round" stroke-width="5"/><path d="m260.20094 486.60497c46.2475 26.20821 43.02325 86.68959 22.22336 128.28937-25.69106 51.38212 32.80152 83.36602-37.37565 153.54319-44.49702 44.49702-76.86704-39.06187-66.67007-74.75129" fill="#871000" filter="url(#a)" opacity=".566775"/><path d="m162.21614 705.80807c116.51222 31.51172 292.48453 258.77023 44.11496 261.87462-139.943353 1.74916-152.884342-94.88961-107.775733-143.54547 46.067583-49.69025 111.315313-65.67839 53.559253-94.08549" fill="#a31400" stroke="#000" stroke-linecap="round" stroke-linejoin="round" stroke-width="5"/><path d="m259.98101 394.58401c-16.28308 28.85104-33.74092 29.05779-54.96468 47.76634-23.65242 20.84941-40.29655 84.3809-61.59132 134.83295-21.29476 50.45201-60.203743 76.03149-35.7673 106.70813 17.15889-51.94915 82.63316-4.50386 96.52863 13.43065 18.6726-29.32019 25.75312-67.66065 46.49555-117.94015 12.32838-23.90219 33.21885-59.83275 18.22217-96.17714" fill="#ec3118" stroke="#000" stroke-linecap="round" stroke-width="5"/><path d="m269.29231 345.18361c-36.02485 3.4264-86.79046-1.10426-96.97464 33.33503-15.42904 52.17554 64.05048 67.88566 95.96449 83.84267 60.30072 30.15036 37.27647 77.78174 134.35029 77.78174 3.86338 0 22.68774 2.56608 25.25381 0 7.29573-7.29573 29.30305-8.09415 37.37565-20.20305 23.11005-34.66508 34.75074-53.33906 53.53808-90.91373 5.55872-11.11744 24.61847-28.02372 30.30458-39.39595 30.71058-61.42117-140.9878-64.64976-171.72593-64.64976-37.53485 0-88.24975 21.38528-108.08633 20.20305z" fill="#fff" stroke="#000" stroke-linecap="round" stroke-linejoin="round" stroke-width="5"/><path d="m105.66534 688.49308c26.85874-80.81318 95.35264 16.09876 101.78571 11.07143 59.43122-46.44442-97.85714-134.03372-113.571433-52.85714-4.572 23.61794 1.75752 33.42891 11.785723 41.78571z" fill="#fff" stroke="#000" stroke-linecap="round" stroke-linejoin="round" stroke-width="5"/><path d="m149.00366 677.64635c-9.34716 9.97907-35.47919 2.57498-56.568543-11.11167-15.06855 8.054-29.83509 27.27142-11.11168 51.51778 17.388772-5.46838 58.773893-1.2459 66.670073 1.01015" fill="#a31400" stroke="#000" stroke-linecap="round" stroke-linejoin="round" stroke-width="5"/><path d="m213.56051 685.17173c99.44548 58.30765 109.60811 302.88523-55.2741 224.57841-39.5005-18.75978-45.55485-49.12992-6.53379-105.18705 27.93632-40.13295 112.64423-62.3501 62.64622-104.72866" fill="#ff321c" filter="url(#h)" opacity=".596091" transform="matrix(.7673889 0 0 .91288069 18.340388 96.037433)"/><path d="m135.47977 646.71513c-26.80708 8.82163-47.157503 78.25018-21.8436 100.49317 8.31209 7.30373 15.90812 2.00436 17.29948 2.74563 11.61454 13.60899 16.58724 3.46567 22.49125 5.17382 1.60485-2.16737.91748 12.56931 16.89821 7.69521 9.03551-2.75582-2.67532-32.23448 5.81999-42.94978 8.97871-11.32501 20.79981 13.3059 29.34635.005 5.26897-8.20002-.73259-21.69153-4.12911-28.5784-18.04407-36.58676-36.54993-44.58469-65.88257-44.58469z" fill="#edd6a9" stroke="#000" stroke-linecap="round" stroke-linejoin="round" stroke-width="4.893923"/><path d="m470.16533 180.42166c-63.68779-200.446446-355.87399-102.911642-304.28571 45.71428 4.18988 12.07105 19.16523 25.22517 34.28571-17.14286 1.87235-5.24638-19.27981 128.74565 31.42857 90" fill="#ec3118" stroke="#000" stroke-linecap="round" stroke-linejoin="round" stroke-width="5"/><path d="m344.54131 194.06486c-37.85457-78.84562-165.44177-128.721299-170.66713 20.5261-.44709 12.76971 28.2566 23.20486 43.37708-19.16317 1.87235-5.24638-34.93717 149.45378 15.77121 110.70813" fill="#871000" filter="url(#g)" opacity=".384365" transform="matrix(.89672511 0 0 .82991855 32.483671 14.494028)"/><g stroke="#000"><path d="m393.44552 471.6153c-44.16757-7.91864-92.71631-50.4604-116.15205-79.34323-3.64026-4.48635-17.78359-7.83044-23.0292-11.20995-10.4474-6.73077-20.32549-30.37076-27.55764-39.28385-8.05497-9.92715 4.97681-24.61158-1.81339-32.98001 31.137-126.10473 115.78618-205.93102 217.33092-145.38562 7.09607 4.57166 7.98891 13.7589 12.00977 18.71433 23.10344 13.89943 17.88771 34.24259 24.24377 52.57499 7.83033 21.09066 11.31028 33.63915 26.86788 52.81274 11.69413 14.41214-11.27245 97.64267-21.81694 105.40969-27.1308 19.98437-8.50676 17.48426-39.2034 27.59049-15.70347 5.17006-16.36279 19.9921-50.87972 51.10042z" fill="#edd6a9" stroke-linecap="round" stroke-linejoin="round" stroke-width="5"/><path d="m435.91789 225.92049c-5.02428 49.86277 26.55284 57.93781 39.51707 76.94249" fill="none" stroke-linecap="round" stroke-width="5"/><path d="m307.55804 391.89401c16.57734 39.40162 114.40652 79.32126 131.67501 37.44803" fill="#edd6a9" stroke-linecap="round" stroke-width="5"/><path d="m442.64181 685.63043c7.51094 27.71292-.45979 58.01046 25.38695 82.66228 11.74059-12.22035 27.39055-19.4183 40.38899-22.67458-22.29741-12.93241-33.39118-44.73005-46.40183-65.39467z" fill="#ffbc4a" stroke-linecap="round" stroke-linejoin="round" stroke-width="5"/><path d="m456.16533 689.56452c-2.84498 28.57143 10.00597 57.14285-11.42857 85.71428-13.59262-10.12023-30.21422-14.64288-43.57142-15.71428 19.86348-16.42754 25.56976-49.6179 35-72.14286z" fill="#ffbc4a" stroke-linecap="round" stroke-linejoin="round" stroke-width="5"/><path d="m635.2079 574.78409c-84.58834 9.84764-42.41534-92.20111-23.42808-94.8935-67.22452-34.20548-69.76366 145.9215-10.96472 126.27914 25.29888-8.45134 31.06254-18.76382 34.3928-31.38564z" fill="#fff" stroke-linecap="round" stroke-linejoin="round" stroke-width="5"/><rect fill="#ffbc4a" height="61.42857" rx="16.470329" stroke-linecap="round" stroke-linejoin="round" stroke-width="5" transform="matrix(.99246462 -.12253152 .12253152 .99246462 0 0)" width="70" x="320.94168" y="700.68994"/><path d="m357.80636 367.60216c-57.3774 72.07891-34.6166 152.93151 10.04211 218.3856 5.98743-4.56556 11.6843-6.32448 17.86113-29.13964-15.08549 70.59775 101.16651 149.74375 117.50743 153.61896 10.50407-34.13541 13.46799-51.72666 16.99877-70.43417 2.52705 9.48958 6.10498 11.57242 12.25227 17.2446 15.08833-47.02208 26.27423-89.68778 32.24908-127.44106 3.47792 10.37743 12.07041 16.6923 18.18385 16.08892 14.91686-154.03054-64.8745-198.0999-139.01228-204.64887-10.00495 9.45082-72.28398 22.04221-86.08236 26.32566z" fill="#e1e0dd" stroke-linecap="round" stroke-linejoin="round" stroke-width="5"/><path d="m233.72877 266.85013c-18.02494 45.90732-20.6102 131.66951 28.48945 137.9457 10.48438 1.34016 18.61082 2.63618 23.62333-4.53918 6.61831-9.47401-3.96769-29.93414-9.05419-36.20288-12.17281 3.91609-24.17127 10.1654-34.52755-.2905-14.57817-14.71841-6.01237-33.28693 7.84675-38.85265 20.06008-8.05599 25.54703 10.71725 33.84896 20.16612 3.0353-1.572 20.66507 5.17572 25.29697 6.55153-18.44404-39.25902-14.82056-60.97569 5.84968-78.88026-1.5605-25.09352.1881-50.04263 8.55628-73.53714-32.26835-11.19184-89.84814 50.85171-89.92968 67.63926z" fill="#e1e0dd" stroke-linecap="round" stroke-linejoin="round" stroke-width="5"/></g><path d="m436.73676 148.13594c-17.16739-17.22775-33.24499-31.60344-50-41.42857-39.72088-23.292308-85.71429-31.0052-104.28572-17.142857-2.46433 1.839459 39.85389 6.71266 65.71429 19.999997 19.70147 10.12282 71.04883 99.90053 88.57143 38.57143z" fill="#ffaa8f" filter="url(#b)" opacity=".488599"/><path d="m210.36268 243.94038c-32.50871 61.16134.8285 98.95851 16.48773 75.45812 77.27596-137.87384 169.64204-159.06312 237.44387-118.5267 21.52804-4.7404 29.31069-17.20305 14.81385-50.33423-9.23846-22.82864-40.58071-36.67792-65.21397.92281-60.34755-78.113554-163.98611 18.08004-203.53148 92.48z" fill="#fff" stroke="#000" stroke-width="5.0743"/><path d="m414.62069 347.03045c22.15641 38.89076 63.31398 32.0835 56.28921-9.0585-20.11462-5.90334-40.39964 1.38477-56.28921 9.0585z" fill="#deaa87" stroke="#000" stroke-linecap="round" stroke-linejoin="round" stroke-width="5"/><path d="m421.59867 341.91815c22.57118 41.1709 54.20989 9.50778 38.74262-14.79691-14.99965-1.60245-28.50063 4.70512-38.74262 14.79691z" fill="#702204" stroke="#000" stroke-linecap="round" stroke-linejoin="round" stroke-width="4.111356"/><path d="m404.99904 313.62893c-18.66274-2.38557-42.96492 22.41121-61.29779 10.60019-7.30087-4.70359-4.86869-31.63172-8.10695-26.99618-8.3728 11.98555-19.09944 26.52712-10.95465 46.54897 24.31026 46.16314 96.86762 18.65771 128.70947-4.16267 25.93368 2.2841 56.39865 16.89529 73.49527-11.33831 5.24554-8.66258 5.84373-41.17614-4.76626-64.39788-3.62002 26.9993-29.13219 27.32674-49.64947 33.50921-13.5301 39.63869-26.95908 31.53549-67.42962 16.23667z" fill="#e1e0dd" stroke="#000" stroke-linecap="round" stroke-linejoin="round" stroke-width="5"/><path d="m404.99809 217.55248c-1.36988 8.60464-18.42784 5.3896-31.41729 9.04269-12.98944 3.65306-26.1697 17.5666-36.66876 10.14391-19.59489-13.85328 74.44851-68.98916 68.08605-19.1866z" fill="#e1e0dd" stroke="#000" stroke-linecap="round" stroke-linejoin="round" stroke-width="4.724116"/><path d="m433.46813 217.01383c1.20237 6.83354 12.93567 3.30328 22.0495 5.51449 9.11382 2.21121 18.66107 12.65116 25.72307 6.10678 13.18016-12.21408-53.64572-51.26002-47.77257-11.62127z" fill="#e1e0dd" stroke="#000" stroke-linecap="round" stroke-linejoin="round" stroke-width="5"/><path d="m416.39195 298.28957c22.62898-28.96542 42.00391-17.42446 55.84332 1.3074" fill="none" stroke="#000" stroke-linecap="round" stroke-width="5"/><path d="m-173.74624 228.07771a20.203051 26.263966 0 1 1 -40.40611 0 20.203051 26.263966 0 1 1 40.40611 0z" fill="#fff" stroke="#000" stroke-linecap="round" stroke-linejoin="round" stroke-width="5.118404" transform="matrix(.92822056 .03406915 -.00295939 .83182393 564.48537 79.022335)"/><path d="m151.52289 274.54471a8.8388348 11.111678 0 1 1 -17.67767 0 8.8388348 11.111678 0 1 1 17.67767 0z" stroke="#000" stroke-linecap="round" stroke-linejoin="round" stroke-width="5.118404" transform="matrix(1.0213488 .0374873 -.00311812 .87644269 245.45356 19.31229)"/><path d="m147.98734 271.26172a3.2829957 5.3033009 0 1 1 -6.56599 0 3.2829957 5.3033009 0 1 1 6.56599 0z" fill="#fff" transform="matrix(1.5213352 .05583868 -.00311812 .87644269 172.91986 16.96309)"/><path d="m-173.74624 228.07771a20.203051 26.263966 0 1 1 -40.40611 0 20.203051 26.263966 0 1 1 40.40611 0z" fill="#fff" stroke="#000" stroke-linecap="round" stroke-linejoin="round" stroke-width="5.118404" transform="matrix(.83150802 .02506422 -.00947774 .79795677 621.23887 79.115344)"/><path d="m151.52289 274.54471a8.8388348 11.111678 0 1 1 -17.67767 0 8.8388348 11.111678 0 1 1 17.67767 0z" stroke="#000" stroke-linecap="round" stroke-linejoin="round" stroke-width="5.118404" transform="matrix(.91493306 .02757894 -.00998612 .8407589 336.1284 24.793737)"/><path d="m147.98734 271.26172a3.2829957 5.3033009 0 1 1 -6.56599 0 3.2829957 5.3033009 0 1 1 6.56599 0z" fill="#fff" transform="matrix(1.3628252 .0410798 -.00998612 .8407589 271.1495 23.13545)"/><g stroke="#000" stroke-linecap="round"><g fill="none" stroke-width="5"><path d="m259.38623 333.9992c-21.31673 3.01814-14.32297 28.25537-.10438 23.35033"/><path d="m130.92122 748.96404c-6.07149-12.09241-9.18545-29.62529-5.67219-42.98595"/><path d="m154.60929 756.80794c-4.65918-11.4495-7.53594-28.03678-4.64089-42.03068"/></g><g stroke-linejoin="round"><g stroke-width="5"><rect fill="#ec3118" height="676.80219" rx="15.097802" transform="matrix(.99908278 .04282046 -.04282046 .99908278 0 0)" width="22.223356" x="651.03607" y="177.7648"/><path d="m655.67566 504.78771c-5.17929 4.26919-26.10599 13.44793-20.70812 24.24367 5.25275 10.5055 21.16196-.15005 20.96066.25253-3.6086 7.21722-18.83395 9.6244-19.95051 18.43529-1.97192 15.56058 15.35022 6.56599 17.67766 6.56599 5.36904 0-10.73087 7.31962-13.13198 12.12183-6.51822 13.03644 3.03039 19.27714 11.61676 12.12183" fill="#edd6a9"/><path d="m604.66296 485.59481c9.66757-12.10985 16.79696-9.50419 24.86961-14.95875 20.10619-13.58541 32.56591-9.82562 5.89847 25.60373-3.73013 4.95572-7.91044 27.61132-19.65639 29.25606" fill="#edd6a9"/><path d="m628.35016 243.08882s-18.3987-23.31941-16.6952-36.62893c2.7691-21.6349 17.8311-36.43674 27.9285-55.77013 9.7321-18.63425 21.5085-56.103407 21.5085-56.103407s9.2179 40.491737 14.797 59.418327c5.3111 18.01739 20.2382 36.31292 18.6228 54.61017-2.0822 23.58615-19.9066 39.02059-19.9066 39.02059z" fill="#4e869f"/><path d="m641.47776 241.08793c-.3457 1.43156-17.1883-20.9619-14.9045-34.6735 2.3885-14.34095 9.7629-21.97285 17.4984-34.19772 7.8287-12.37193 14.2756-32.3546 14.2756-32.3546s1.68 20.15039 8.3159 31.45901c7.4345 12.6696 15.5173 25.79976 14.4537 37.99859-1.3712 15.725-14.1858 32.55305-14.1858 32.55305z" fill="#a5c8d7"/></g><rect fill="#4e869f" height="20.10858" rx="12.05165" stroke-width="5.000001" transform="matrix(.99863173 .05229396 -.05139334 .99867849 0 0)" width="64.999435" x="630.72601" y="203.3907"/><rect fill="#4e869f" height="16.627468" rx="8.740734" stroke-width="5.000021" transform="matrix(.99853654 .05408114 -.04993626 .99875241 0 0)" width="47.142323" x="640.32745" y="222.60266"/><rect fill="#4e869f" height="15.234744" rx="5.827418" stroke-width="5.000194" transform="matrix(.99822688 .05952384 -.0471033 .99889002 0 0)" width="31.429628" x="647.69403" y="236.82747"/><rect fill="#4e869f" height="15.234744" rx="5.827418" stroke-width="5.000194" transform="matrix(-.99822688 -.05952384 .0471033 -.99889002 0 0)" width="31.429628" x="-681.71387" y="-843.67285"/></g></g><path d="m123.48219 868.50442-1.17615 14.00227-12.93771-6.26418 9.80129 12.89683-15.29001 2.94785 14.89796 3.31632-8.23308 11.79138 14.11385-6.63265.78411 14.00227 7.84103-12.15986 12.15359 10.68594-7.05692-16.58164 17.64232-1.10544-16.85822-6.63265 14.89796-8.84354-17.25027 2.21089 5.48873-14.00227-12.93771 12.15986z" fill="#ffbc4a"/><path d="m272.76522 822.42166 1.03115 13.57143 11.34265-6.07143-8.59292 12.5 13.40494 2.85715-13.06122 3.21428 7.21804 11.42857-12.37378-6.42857-.68744 13.57143-6.87433-11.78571-10.6552 10.35714 6.18689-16.07143-15.46724-1.07143 14.77981-6.42857-13.06123-8.57143 15.12352 2.14286-4.81203-13.57143 11.34265 11.78571z" fill="#ffbc4a"/><path d="m226.69649 886.7187-1.17615 14.00227-12.93771-6.26418 9.80129 12.89683-15.29001 2.94785 14.89796 3.31632-8.23308 11.79138 14.11385-6.63265.78411 14.00227 7.84103-12.15986 12.15359 10.68594-7.05692-16.58164 17.64232-1.10544-16.85822-6.63265 14.89796-8.84354-17.25027 2.21089 5.48873-14.00227-12.93771 12.15986z" fill="#ffbc4a"/><path d="m170.61699 821.69037-.98281 12.92518-10.81097-5.78232 8.19012 11.90476-12.77658 2.72109 12.44898 3.06122-6.8797 10.88435 11.79377-6.12244.65521 12.92517 6.5521-11.22449 10.15574 9.86395-5.89688-15.30613 14.74221-1.02041-14.087-6.12244 12.44898-8.16327-14.41461 2.04082 4.58647-12.92517-10.81096 11.22448z" fill="#ffbc4a"/><path d="m212.59336 760.93639.87003 11.41724 9.57036-5.10772-7.25027 10.51588 11.31042 2.40363-11.02041 2.70408 6.09023 9.61451-10.44039-5.40817-.58002 11.41724-5.80022-9.91496-8.99032 8.71315 5.22018-13.52042-13.05048-.90135 12.47046-5.40817-11.0204-7.21088 12.76047 1.80272-4.06016-11.41723 9.57036 9.91496z" fill="#ffbc4a"/><path d="m388.49031 396.7014c-13.45489 10.89291-38.96292 100.43813-11.11168 128.28937 5.65349 5.6535 31.11609-18.58002 38.3858-4.0406 21.43857 42.87714 24.59495 75.10257 59.599 110.10662 3.56531 3.56531 11.76702-26.91931 15.15229-30.30458-7.00455-68.88622-6.23373-27.56957-20.20305-47.47717-34.81567-52.2235 41.78102-159.19021-81.82236-156.57364z" fill="#fff" filter="url(#f)"/><path d="m430.30818 902.42166c20.86012-11.0326-52.28909-39.43195-40.71428-27.85715 5.37123 5.37124 16.85447 2.99467 20.71428 10.71429 1.00006 2.00011 15.56265 52.6417 20 17.14286z" fill="#fff" filter="url(#d)" opacity=".661238"/><path d="m559.09964 849.21443c20.86012-11.0326-52.28909-39.43195-40.71428-27.85715 5.37123 5.37124 16.85447 2.99467 20.71428 10.71429 1.00006 2.00011 15.56265 52.6417 20 17.14286z" fill="#fff" filter="url(#e)" opacity=".563518" transform="matrix(.65023537 0 0 .74169543 153.1754 243.52053)"/></svg>